HIERARCHY
ROOT pelvis
{
  OFFSET 0 100 0
  CHANNELS 6 Xposition Yposition Zposition Zrotation Xrotation Yrotation
  JOINT pelvis_right_femur
  {
    OFFSET -10.78128 -3.44521 -0.5502486
    CHANNELS 3 Zrotation Xrotation Yrotation
    JOINT right_femur_tibia
    {
      OFFSET -0.8047443 -44.0398 -0.1307829
      CHANNELS 3 Zrotation Xrotation Yrotation
      JOINT right_tibia_foot
      {
        OFFSET 3.006224 -47.83518 -5
        CHANNELS 3 Zrotation Xrotation Yrotation
        End Site
        {
          OFFSET 0 -5 15
        }
      }
    }
  }
  JOINT pelvis_left_femur
  {
    OFFSET 10.78128 -3.44521 -0.5502486
    CHANNELS 3 Zrotation Xrotation Yrotation
    JOINT left_femur_tibia
    {
      OFFSET 0.8047443 -44.0398 -0.1307829
      CHANNELS 3 Zrotation Xrotation Yrotation
      JOINT left_tibia_foot
      {
        OFFSET -4.370144 -48.10324 -4.275266
        CHANNELS 3 Zrotation Xrotation Yrotation
        End Site
        {
          OFFSET 0 -5 15
        }
      }
    }
  }
  JOINT pelvis_spine1
  {
    OFFSET 0 6.468898 -3.129235
    CHANNELS 3 Zrotation Xrotation Yrotation
    JOINT spine1
    {
      OFFSET 0 23.15396 4.99043
      CHANNELS 3 Zrotation Xrotation Yrotation
      JOINT spine2
      {
        OFFSET 0 20.79997 -5.064912
        CHANNELS 3 Zrotation Xrotation Yrotation
        JOINT neck
        {
          OFFSET 0 14.38658 9.616178
          CHANNELS 3 Zrotation Xrotation Yrotation
          End Site
          {
            OFFSET 0 20 0
          }
        }
      }
      JOINT right_manubrium
      {
        OFFSET -5.722621 16.35077 3.967754
        CHANNELS 3 Zrotation Xrotation Yrotation
        JOINT right_clavicle
        {
          OFFSET -13.16364 1.694482 -4.693211
          CHANNELS 3 Zrotation Xrotation Yrotation
          JOINT right_humerus
          {
            OFFSET -28.5034 -0.3100689 -2.792744
            CHANNELS 3 Zrotation Xrotation Yrotation
            JOINT right_radius
            {
              OFFSET -25.15693 0.02248979 -1.271978
              CHANNELS 3 Zrotation Xrotation Yrotation
              End Site
              {
                OFFSET -15 0 0
              }
            }
          }
        }
      }
      JOINT left_manubrium
      {
        OFFSET 5.722621 16.35077 3.967754
        CHANNELS 3 Zrotation Xrotation Yrotation
        JOINT left_clavicle
        {
          OFFSET 13.16364 1.694482 -4.693211
          CHANNELS 3 Zrotation Xrotation Yrotation
          JOINT left_humerus
          {
            OFFSET 29.39168 -1.063119 -2.237045
            CHANNELS 3 Zrotation Xrotation Yrotation
            JOINT left_radius
            {
              OFFSET 24.59957 -0.9528479 0.9047498
              CHANNELS 3 Zrotation Xrotation Yrotation
              End Site
              {
                OFFSET 15 -0 -0
              }
            }
          }
        }
      }
    }
  }
}
MOTION
Frames: 15
Frame Time: 0.0416666666667
-1304.826 105.5263 2252.2 -6.979019 -0.3993245 -79.87219 7.766707 -8.286827 -1.290596 -0 11.94185 -0 -13.14756 0.6954714 -1.652787 -2.354131 0.2022715 -4.819373 -0 58.36134 -0 0.6693938 -4.167346 13.42613 2.370748 -3.4464 10.21361 1.397327 18.48109 -9.494833 -0.2499432 17.9334 2.092771 1.860725 -20.04787 1.092722 -4.278649 -28.67639 13.79121 95.83859 16.14331 -22.35751 -0 0 20.95501 -17.55096 8.943687 6.30149 2.464278 -31.19438 -10.63813 -88.25161 6.406144 29.14896 0 0 -27.68706 10.39239 8.133806 0.6533066
-1310.233 106.7935 2253.124 -7.466934 -1.053016 -80.7144 7.042615 -2.762831 -0.9213296 -0 10.5972 -0 -12.68945 -1.984446 -1.998581 -1.821468 -5.807934 -4.595607 -0 58.74592 -0 0.09400532 -3.825761 14.07864 2.376558 -3.467762 10.32771 1.378112 18.48433 -9.266077 -0.1566012 17.7094 1.759445 1.449525 -19.96669 1.152746 -4.082913 -29.43228 13.74302 94.95934 16.18013 -20.90022 -0 0 22.60322 -17.6713 9.844799 7.226364 2.200304 -30.26765 -10.23947 -88.84564 6.631548 30.86019 0 0 -25.78485 9.738617 8.125138 1.782074
-1315.351 107.6514 2254.003 -7.686027 -1.516487 -81.42752 6.394358 2.164629 -0.5255448 -0 9.090228 -0 -12.08337 -4.547174 -2.213499 -0.9325118 -11.39471 -4.125332 -0 54.33721 -0 -0.1664901 -4.002254 15.04683 2.35608 -3.483069 10.47929 1.377534 18.46236 -9.045064 -0.06987201 17.41841 1.377707 1.014808 -19.85271 1.170444 -3.819766 -30.27932 13.68046 93.89151 16.22105 -19.29231 -0 0 24.49839 -17.7424 10.81095 8.208478 1.923139 -29.263 -9.776881 -89.46701 6.873763 32.70942 0 0 -23.84342 9.031233 7.977041 3.035279
-1320.319 107.9363 2254.883 -7.702262 -1.517482 -82.04068 6.12011 6.171983 -0.09988431 -0 8.017608 -0 -11.56763 -7.172981 -2.33407 0.4267055 -16.02308 -3.385368 -0 46.12181 -0 -0.06915366 -4.096429 16.22418 2.292083 -3.484634 10.62561 1.391692 18.39059 -8.828284 0.008858839 17.10395 0.9869719 0.5954084 -19.69704 1.162195 -3.480986 -31.13421 13.60164 92.6631 16.27593 -17.59562 -0 0 26.50211 -17.79733 11.8026 9.205329 1.664138 -28.20742 -9.2705 -90.09197 7.142404 34.54308 0 0 -21.89697 8.330926 7.744665 4.300958
-1325.273 107.6148 2255.825 -7.545787 -1.069696 -82.63165 6.130262 9.408989 0.274308 -0 7.555443 -0 -11.21839 -10.04682 -2.36972 1.990207 -19.48956 -2.687554 -0 35.86525 -0 0.1323251 -3.889519 17.37128 2.181724 -3.470568 10.7276 1.411885 18.26116 -8.611754 0.08192396 16.81525 0.6273217 0.2225248 -19.50579 1.15327 -3.084296 -31.91455 13.5098 91.35494 16.344 -15.8994 -0 0 28.44491 -17.87513 12.77181 10.1719 1.446408 -27.14444 -8.753144 -90.69531 7.439129 36.21523 0 0 -19.99097 7.691521 7.509219 5.469867
-1330.334 106.7778 2256.887 -7.248582 -0.4176295 -83.26559 6.102741 12.23898 0.5048742 -0 7.732159 -0 -10.99244 -12.94849 -2.285967 3.252647 -21.78532 -2.460971 -0 25.55143 -0 0.1259767 -3.509209 18.25187 2.037246 -3.444634 10.7576 1.42597 18.08484 -8.392294 0.1540476 16.59702 0.3332266 -0.08306664 -19.29681 1.170933 -2.667559 -32.55189 13.41293 90.08398 16.42043 -14.30733 -0 0 30.15763 -18.01206 13.67018 11.06628 1.283428 -26.12899 -8.265271 -91.25292 7.751956 37.61075 0 0 -18.17694 7.154862 7.36155 6.447232
-1335.616 105.616 2258.109 -6.91232 0.1118099 -83.95965 5.71315 14.94661 0.5432125 -0 8.728643 -0 -10.81594 -15.17353 -2.03388 3.735388 -22.93396 -2.999663 -0 16.95913 -0 -0.2378979 -3.237099 18.77533 1.880828 -3.41356 10.70494 1.422166 17.88592 -8.170073 0.2288796 16.47986 0.1284334 -0.3095668 -19.09213 1.234129 -2.27608 -33.00106 13.32179 88.97272 16.50277 -12.9204 -0 0 31.50387 -18.22978 14.45286 11.85098 1.180283 -25.22033 -7.847599 -91.74349 8.05522 38.65857 0 0 -16.50891 6.749079 7.375188 7.162902
-1341.217 104.389 2259.512 -6.69996 0.2601287 -84.67198 4.795978 17.54782 0.4113485 -0 10.95823 -0 -10.66171 -15.77619 -1.582522 3.206939 -22.92147 -4.315309 -0 11.3153 -0 -0.8782393 -3.32515 19.02266 1.737118 -3.383751 10.57863 1.39389 17.69392 -7.952021 0.3055237 16.47346 0.02292647 -0.451825 -18.9121 1.345271 -1.95102 -33.24464 13.24712 88.12093 16.59183 -11.82424 -0 0 32.40109 -18.52386 15.0787 12.49026 1.135431 -24.47575 -7.533693 -92.14796 8.316149 39.33274 0 0 -15.04948 6.488555 7.578465 7.580669
-1347.193 103.3831 2261.08 -6.759444 -0.05968055 -85.3117 3.406611 19.72533 0.1905116 -0 14.91338 -0 -10.59902 -13.98061 -0.9478735 1.776533 -21.72588 -6.13268 -0 9.044674 -0 -1.541018 -3.889526 19.1791 1.627112 -3.359245 10.407 1.343748 17.53663 -7.75514 0.3765473 16.56354 0.01203727 -0.5099872 -18.77348 1.486695 -1.722979 -33.29364 13.19721 87.59011 16.68689 -11.08503 -0 0 32.82743 -18.85629 15.50903 12.94587 1.141766 -23.94762 -7.345177 -92.44694 8.503497 39.64532 0 0 -13.88356 6.374315 7.935918 7.704304
-1353.522 102.8534 2262.754 -7.146872 -0.7362925 -85.76867 1.803236 20.90863 -0.03155511 -0 20.85996 -0 -10.77849 -9.607493 -0.1976652 -0.1634123 -19.39622 -8.022131 -0 9.695661 -0 -1.933686 -4.88818 19.43373 1.565387 -3.341857 10.23486 1.285064 17.43723 -7.608196 0.4282221 16.71237 0.07716743 -0.4896106 -18.69004 1.622095 -1.610888 -33.18521 13.17698 87.40241 16.77906 -10.75256 -0 0 32.8175 -19.15547 15.70805 13.17486 1.186812 -23.68308 -7.290817 -92.6176 8.593182 39.63641 0 0 -13.13012 6.394044 8.346533 7.57756
-1360.074 102.9519 2264.439 -7.800884 -1.517003 -85.95453 0.3598289 20.50388 -0.2191469 -0 28.49886 -0 -11.32883 -3.341311 0.5795619 -2.112041 -16.11314 -9.606354 -0 12.1092 -0 -1.887355 -6.168132 19.8782 1.560206 -3.332809 10.1176 1.239722 17.41434 -7.549279 0.4431816 16.86423 0.1882595 -0.4021808 -18.67289 1.702781 -1.623445 -32.97724 13.18832 87.54803 16.84782 -10.86204 -0 0 32.45132 -19.32725 15.64641 13.13371 1.252961 -23.72277 -7.368355 -92.63375 8.569346 39.36569 0 0 -12.93651 6.522349 8.662716 7.276638
-1366.623 103.6692 2266.04 -8.576096 -2.128963 -85.83829 -0.5889976 18.19667 -0.4001846 -0 36.7831 -0 -12.22647 3.373779 1.290609 -3.660282 -12.18575 -10.71711 -0 14.83933 -0 -1.465883 -7.561517 20.43592 1.614339 -3.333792 10.111 1.231738 17.48133 -7.616571 0.405051 16.9579 0.3094981 -0.263499 -18.72809 1.678505 -1.759544 -32.73721 13.23093 87.99276 16.86574 -11.42653 -0 0 31.83775 -19.27885 15.30678 12.79059 1.319576 -24.09384 -7.566992 -92.47339 8.423141 38.90564 0 0 -13.44095 6.723886 8.729317 6.893793
-1372.925 104.8287 2267.5 -9.304496 -2.408656 -85.45879 -0.9098146 14.14423 -0.6319291 -0 44.09969 -0 -13.24285 8.89094 1.814888 -4.619196 -7.987695 -11.40044 -0 16.69773 -0 -0.9289698 -8.981808 20.87961 1.724846 -3.345758 10.25683 1.277838 17.64226 -7.833141 0.3037087 16.94615 0.4093821 -0.08807465 -18.85168 1.511468 -2.006495 -32.52353 13.30261 88.6822 16.81219 -12.42092 -0 0 31.0901 -18.95152 14.68774 12.14131 1.368344 -24.7974 -7.869485 -92.13302 8.152765 38.3319 0 0 -14.70802 6.962025 8.434135 6.512188
-1378.804 106.147 2268.813 -9.843283 -2.361921 -84.90744 -0.7164612 8.901212 -0.9768087 -0 48.8267 -0 -14.04002 12.09184 2.025423 -5.030652 -3.869345 -11.79125 -0 17.14569 -0 -0.5508428 -10.44795 20.95861 1.882095 -3.366187 10.56749 1.379436 17.88624 -8.193159 0.1391985 16.81533 0.4727488 0.1182264 -19.02665 1.189897 -2.338989 -32.36406 13.39903 89.54775 16.6884 -13.77285 -0 0 30.29445 -18.34812 13.80474 11.21894 1.390555 -25.79833 -8.254686 -91.63893 7.766356 37.70584 0 0 -16.67409 7.211317 7.751078 6.178255
-1384.202 107.3268 2270.006 -10.09237 -2.119753 -84.29358 -0.2691518 3.138653 -1.49699 -0 49.94367 -0 -14.37131 12.78594 1.891654 -5.082525 -0.08664534 -11.98263 -0 16.31736 -0 -0.4396653 -12.01911 20.54888 2.069945 -3.388173 11.01623 1.521147 18.18612 -8.659512 -0.07703351 16.59376 0.5080842 0.3608486 -19.22688 0.7361781 -2.723172 -32.24316 13.51375 90.52111 16.52051 -15.37612 -0 0 29.48101 -17.5401 12.69106 10.08982 1.391843 -27.02707 -8.701167 -91.04307 7.285646 37.05185 0 0 -19.14892 7.466553 6.755767 5.88473
